#N canvas 870 746 312 184 12;
#N canvas 1164 83 342 191 extra-modules 0;
#N canvas 1084 196 473 595 open-sampler 0;
#X msg 64 84 bang;
#X obj 64 151 t b b b;
#X obj 162 168 f;
#X obj 191 168 + 1;
#X obj 162 257 + 1;
#X obj 223 101 delay 250;
#X msg 223 211 \; pd-modules vis 0;
#X obj 223 123 t b b;
#X msg 250 171 \; pd-main.pd editmode 1;
#X obj 83 316 pack s f;
#X obj 177 59 r \$0-reset!;
#X msg 177 81 0;
#X msg 83 341 \; pd-main.pd obj 200 200 \$1 \$2;
#X obj 162 280 nbx 5 14 -1e+037 1e+037 0 1 empty empty empty 0 -8 0
10 -262144 -1 -1 2 256;
#X obj 64 387 t b b;
#X msg 64 509 loadbang;
#X obj 96 411 s SAVE-S;
#X obj 64 462 delay 100;
#X obj 308 316 f;
#X obj 308 278 loadbang;
#X obj 162 299 t f f;
#X obj 64 35 r \$0-create-sampler!;
#X msg 83 235 sampler;
#X floatatom 308 338 5 0 0 0 - - -, f 5;
#X obj 64 562 s pd-sampler.pd;
#X connect 0 0 1 0;
#X connect 0 0 5 0;
#X connect 1 0 14 0;
#X connect 1 1 22 0;
#X connect 1 2 2 0;
#X connect 2 0 3 0;
#X connect 2 0 4 0;
#X connect 3 0 2 1;
#X connect 4 0 13 0;
#X connect 5 0 7 0;
#X connect 7 0 6 0;
#X connect 7 1 8 0;
#X connect 9 0 12 0;
#X connect 10 0 11 0;
#X connect 11 0 2 1;
#X connect 11 0 13 0;
#X connect 13 0 20 0;
#X connect 14 0 17 0;
#X connect 14 1 16 0;
#X connect 15 0 24 0;
#X connect 17 0 15 0;
#X connect 18 0 2 1;
#X connect 18 0 23 0;
#X connect 19 0 18 0;
#X connect 20 0 9 1;
#X connect 20 1 18 1;
#X connect 21 0 0 0;
#X connect 22 0 9 0;
#X restore 14 32 pd open-sampler;
#X restore 9 88 pd extra-modules;
#X obj 14 26 cnv 15 180 15 empty empty EXTRAS: 10 8 0 12 -158136 -262144
0;
#X obj 14 47 bng 15 250 50 0 \$0-create-sampler! empty <--SAMPLER 17
7 0 10 -262144 -1 -1;
